# xmcd
#
# Track frame offsets:
#	150
#	3498
#	24030
#	52372
#	60507
#
# Disc length: 2552 seconds
#
# Revision: 1
# Processed by: cddbd v1.5.2PL0 Copyright (c) Steve Scherf et al.
# Submitted via: audiograbber 1.83.01
#
DISCID=3609f605
DTITLE=Grateful Dead - 70-11-05A Capitol Theatre, Port Chester NY
DYEAR=1900
DGENRE=
TTITLE0=Drums
TTITLE1=Not Fade Away
TTITLE2=Going Down The Road Feeling Bad
TTITLE3=Not Fade Away
TTITLE4=Turn On Your Lovelight
EXTD=
EXTT0=
EXTT1=
EXTT2=
EXTT3=
EXTT4=
PLAYORDER=
